<svg width="36" height="36" viewBox="0 0 36 36" fill="none" xmlns="http://www.w3.org/2000/svg">
<rect width="36" height="36" rx="5" fill="#F0F0F0"/>
<g clip-path="url(#clip0_1021_4977)">
<path d="M8.8335 18.0002C8.8335 18.0002 12.1668 11.3335 18.0002 11.3335C23.8335 11.3335 27.1668 18.0002 27.1668 18.0002C27.1668 18.0002 23.8335 24.6668 18.0002 24.6668C12.1668 24.6668 8.8335 18.0002 8.8335 18.0002Z" stroke="#40393A" stroke-width="2" stroke-linecap="round" stroke-linejoin="round"/>
<path d="M18.0002 20.5002C19.3809 20.5002 20.5002 19.3809 20.5002 18.0002C20.5002 16.6195 19.3809 15.5002 18.0002 15.5002C16.6195 15.5002 15.5002 16.6195 15.5002 18.0002C15.5002 19.3809 16.6195 20.5002 18.0002 20.5002Z" stroke="#40393A" stroke-width="2" stroke-linecap="round" stroke-linejoin="round"/>
</g>
<defs>
<clipPath id="clip0_1021_4977">
<rect width="20" height="20" fill="white" transform="translate(8 8)"/>
</clipPath>
</defs>
</svg>
