<svg width="140" height="253" viewBox="0 0 140 253" fill="none" xmlns="http://www.w3.org/2000/svg">
<path d="M6.38316 155.307C9.84642 155.19 12.1204 155.277 12.3033 159.374C12.4654 163.008 12.4582 166.592 12.4731 170.225C12.5185 177.611 12.4782 184.996 12.3526 192.381C12.1807 209.631 12.2403 226.883 12.5322 244.132C15.0843 244.095 17.7806 243.813 20.3739 243.245C24.6265 242.314 26.6075 244.922 25.7539 249.013C25.5313 250.08 23.682 250.933 22.7161 251.453C17.1262 253.088 8.52619 253.639 2.86876 252.058C-0.334792 251.166 0.145113 244.616 0.116845 241.881C0.0795456 238.245 0.108563 234.485 0.111368 230.805L0.149711 201.884L0.131087 171.154C0.143707 167.908 -0.0460528 164.655 0.0105811 161.423C0.0708779 158.004 1.14532 156.565 4.16913 155.45C4.90538 155.38 5.64383 155.332 6.38316 155.307Z" fill="#FF4460"/>
<path d="M67.4063 185.905C72.5036 184.782 83.043 187.218 85.2992 192.329C86.4278 194.886 83.9056 196.585 81.9448 197.272C76.7032 199.109 76.2801 195.659 73.2432 192.6C72.6826 192.033 71.2172 191.334 70.3981 190.936C65.4922 192.879 62.6753 194.589 63.5983 200.514C65.5822 213.407 75.6603 222.766 82.6875 233C86.5524 238.627 86.0362 245.738 79.7034 249.258C74.2647 252.28 69.9553 251.723 64.2961 250.224C61.3983 249.32 58.6934 247.879 56.3208 245.983C50.6465 241.503 41.9584 232.817 55.4357 232.423C62.0415 232.231 59.4614 236.61 63.2368 239.933C64.6853 241.211 69.0456 244.207 70.8254 244.176C71.6456 243.942 71.9414 243.746 72.4741 243.039C75.5895 238.917 67.371 231.255 64.5886 228.151C63.1043 226.508 61.72 224.777 60.4432 222.965C54.2644 214.279 47.5911 201.46 54.8047 191.363C57.8666 187.078 62.6302 186.603 67.4063 185.905Z" fill="#FF4460"/>
<path fill-rule="evenodd" clip-rule="evenodd" d="M132.007 185.593C133.791 185.502 137.698 185.332 138.611 187.28C139.317 189.342 139.264 193.334 139.147 195.576C138.479 208.345 137.931 221.07 137.565 233.85C137.419 238.963 137.783 244.168 136.891 249.188C136.383 252.047 130.706 250.68 128.699 250.148C124.863 244.272 125.702 236.444 125.783 229.601C125.686 229.798 125.586 229.992 125.485 230.184C121.843 237.063 117.286 240.105 110.163 242.319C109.278 242.519 108.022 242.818 107.123 242.784C91.0155 242.165 80.8828 228.528 87.9799 213.258C92.1545 204.217 99.7366 197.208 109.059 193.774C114.941 191.656 120.958 191.523 126.655 194.238C126.862 190.937 126.947 189.998 128.303 187.007C129.87 186.178 130.278 185.929 132.007 185.593ZM125.532 200.236C122.416 199.887 119.275 199.796 116.144 199.971C110.919 201.17 103.824 208.536 101.151 212.951C96.5868 220.486 97.1705 232.961 108.55 232.997C121.362 232.446 126.411 214.743 125.925 204.107C125.867 202.81 125.736 201.516 125.532 200.236Z" fill="#FF4460"/>
<path d="M33.5792 186.744C35.8821 186.701 39.7393 186.227 41.4241 188.12C42.0091 188.777 42.2344 191.59 42.2753 192.561C42.7179 203.018 42.6709 213.494 42.7836 223.959C42.8661 230.684 43.7665 238.025 43.5231 244.713C42.3677 246.289 41.9452 246.86 40.0744 247.336C37.188 247.693 32.9322 248.147 30.9138 245.611C29.6117 241.243 30.2673 196.353 32.0049 188.465C32.1855 187.645 32.776 187.113 33.5792 186.744Z" fill="#FF4460"/>
<path d="M36.25 163.299C47.2663 163.3 45.0226 177.739 36.8646 177.739C27.0741 177.739 27.0742 163.299 36.25 163.299Z" fill="#FF4460"/>
<path d="M57.9728 96.8212C60.6798 98.658 62.7576 104.46 63.2299 107.659C64.2646 114.674 61.7591 120.095 57.6108 125.606L57.2145 125.831L56.8183 125.673C56.0754 123.884 56.1998 120.344 55.5523 118.312C52.3524 108.277 51.5936 105.901 57.9728 96.8212Z" fill="#FF4460"/>
<path d="M61.9418 93.5684C70.6242 93.5057 78.1497 94.105 85.1633 99.8302C91.6284 105.107 94.644 109.776 97.7393 117.372C93.9401 116.388 89.099 113.614 84.5861 112.638C81.6705 112.008 75.594 111.293 73.403 110.259C66.9826 107.229 64.2345 99.6705 61.9418 93.5684Z" fill="#FF4460"/>
<path d="M52.1804 80.183C56.0938 79.0113 60.2167 81.2314 61.3922 85.1428C62.5672 89.0537 60.3509 93.1777 56.4397 94.3562C52.5235 95.5358 48.3926 93.3156 47.2158 89.3997C46.0391 85.4839 48.2623 81.3561 52.1804 80.183Z" fill="#FF4460"/>
<path d="M105.239 64.3018C115.426 64.0174 124.478 66.042 133.862 69.7691C127.368 72.3289 119.275 76.8061 113.103 80.3121C108.108 83.15 103.003 88.9099 97.8938 91.6705C97.192 92.0496 93.9048 92.5628 92.9734 92.7176C86.9558 93.8085 78.6501 92.6677 72.8512 90.7392C70.0587 89.8108 67.4334 88.332 64.4219 87.5846C68.6306 78.9761 79.4172 71.2283 87.947 67.4762C92.5165 65.4666 100.199 64.5546 105.239 64.3018Z" fill="#FF4460"/>
<path d="M5.37531 22.6903C5.02381 18.486 9.20494 18.8797 11.7505 19.1881C18.256 19.9763 24.887 23.2722 29.4887 28.0473C39.6585 38.6003 42.9077 53.7916 42.7225 67.9926C43.9537 66.8211 44.7364 66.0629 46.1231 65.0554L46.1319 57.9362C40.2279 51.9669 53.4778 51.7451 50.0601 57.2786C49.4148 58.3234 47.9248 58.0616 46.654 58.0333C47.2193 60.9026 47.3786 62.1037 47.0337 65.1194C48.5165 65.3524 50.1244 66.1571 50.5027 67.7256C50.5027 69.6342 48.0709 69.6766 46.0568 69.6345C46.1535 70.894 46.2307 72.1552 46.2875 73.417C46.5968 81.5888 35.957 85.8269 29.1619 85.8159C28.3815 85.8145 28.1237 85.797 27.6057 85.241C28.8086 84.2206 31.403 83.741 32.716 83.0905C38.2126 80.366 40.5025 75.8321 42.707 70.6916C41.5567 71.7028 40.4648 72.873 39.249 73.9322C33.8957 78.3896 26.2146 82.5334 19.1433 82.4902C11.9897 82.4464 8.15003 70.4132 13.8332 66.3971C18.2468 63.2784 27.3616 63.9189 32.5725 64.7188C28.1797 60.5932 27.6995 58.7551 23.9843 54.1163C16.6217 44.9069 7.76293 34.4792 5.37531 22.6903Z" fill="#FF4460"/>
<path d="M94.6158 0.221784C91.8586 10.2735 89.6045 20.0445 89.0176 30.5388C88.6727 36.7136 89.6396 44.3044 88.6732 50.3426C88.0873 54.0033 84.6075 59.048 82.6546 61.8864C80.1257 65.5619 63.7493 78.3333 60.2487 78.6791C59.3395 78.2941 59.5953 78.3611 59.0401 77.2678C49.0523 44.4303 65.5515 16.287 94.0694 0L94.6158 0.221784Z" fill="#FF4460"/>
</svg>
