<svg width="88" height="50" viewBox="0 0 88 50" fill="none" xmlns="http://www.w3.org/2000/svg">
<path d="M6.72 48.7678C5.01333 48.3411 3.62667 47.4451 2.56 46.0798C1.536 44.7571 0.704001 43.1571 0.0640011 41.2798C0.0213343 40.7251 9.53674e-07 39.9571 9.53674e-07 38.9758C0.0426677 37.9944 0.106668 37.0771 0.192001 36.2238C0.277335 35.3704 0.362668 34.8798 0.448001 34.7518C0.576001 34.6664 0.640001 34.4104 0.640001 33.9838C0.597335 33.8131 0.618668 33.5358 0.704001 33.1518C0.832001 32.7251 0.960001 32.2984 1.088 31.8718C1.30133 31.3598 1.408 30.9544 1.408 30.6558C1.408 30.3144 1.38667 30.0584 1.344 29.8878C1.344 29.8878 1.408 29.7598 1.536 29.5038C1.664 29.2051 1.81333 28.9704 1.984 28.7998C2.24 28.5438 2.34667 28.2878 2.304 28.0318C2.304 27.7758 2.304 27.6478 2.304 27.6478C2.26133 27.4771 2.304 27.2424 2.432 26.9438C2.56 26.6451 2.688 26.4104 2.816 26.2398C2.90133 26.1544 3.008 25.9838 3.136 25.7278C3.30667 25.4291 3.392 25.2798 3.392 25.2798C3.392 25.1518 3.47733 24.8104 3.648 24.2558C3.86133 23.7011 4.096 23.1038 4.352 22.4638C4.608 21.7811 4.84267 21.1624 5.056 20.6078C5.312 20.0531 5.504 19.6904 5.632 19.5198V19.3918C5.80267 18.9651 6.03733 18.5171 6.336 18.0478C6.37867 17.8344 6.48533 17.4931 6.656 17.0238C6.82667 16.5118 7.01867 16.0211 7.232 15.5518C7.70133 14.5278 8.27734 13.3758 8.96 12.0958C9.68533 10.7731 10.4533 9.47177 11.264 8.19177C12.0747 6.8691 12.8427 5.69577 13.568 4.67177C14.336 3.6051 14.9973 2.81577 15.552 2.30377C16.2773 1.4931 17.0027 0.917102 17.728 0.575768C18.496 0.191767 19.2 0.319767 19.84 0.959766C20.1387 1.25843 20.3947 1.70643 20.608 2.30377C20.8213 2.85844 20.9067 3.39177 20.864 3.90377C20.864 4.3731 20.6933 4.6291 20.352 4.67177C20.0533 4.84244 19.648 5.3331 19.136 6.14377C18.624 6.91177 18.048 7.8291 17.408 8.89577C16.8107 9.96244 16.2133 11.0718 15.616 12.2238C15.0187 13.3331 14.464 14.3358 13.952 15.2318C13.3973 16.4691 12.8853 17.5571 12.416 18.4958C11.9467 19.3918 11.712 19.8398 11.712 19.8398C11.6693 19.9678 11.6267 20.0744 11.584 20.1598C11.5413 20.2451 11.4987 20.3304 11.456 20.4158C10.816 21.7384 10.2827 22.9544 9.856 24.0638C9.42933 25.1304 9.00267 26.2611 8.576 27.4558C8.32 27.7544 8.17067 28.0531 8.128 28.3518C8.08533 28.6504 8.064 28.7998 8.064 28.7998C7.97867 28.7571 7.91467 28.8638 7.872 29.1198C7.82933 29.3331 7.744 29.5891 7.616 29.8878C7.40267 30.0584 7.27467 30.3358 7.232 30.7198C7.18933 31.0611 7.168 31.4024 7.168 31.7438C6.86933 32.5118 6.592 33.4504 6.336 34.5598C6.08 35.6264 5.888 36.6718 5.76 37.6958C5.67467 38.6771 5.65333 39.4451 5.696 39.9998C5.78133 40.7251 5.97333 41.3438 6.272 41.8558C6.61333 42.3251 7.08267 42.7091 7.68 43.0078C8.14933 43.2211 8.576 43.4131 8.96 43.5838C9.344 43.7118 9.68533 43.7758 9.984 43.7758C10.3253 43.8184 10.752 43.8184 11.264 43.7758C11.8187 43.6904 12.5653 43.5624 13.504 43.3918H13.44C13.9947 43.3064 14.5707 43.1998 15.168 43.0718C15.808 42.9011 16.4053 42.7518 16.96 42.6238C17.472 42.5384 17.9627 42.4531 18.432 42.3678C18.9013 42.2398 19.264 42.1331 19.52 42.0478C20.4587 41.7918 21.2053 41.5784 21.76 41.4078C22.3573 41.2371 22.7627 41.2371 22.976 41.4078C23.1893 41.5784 23.424 41.8984 23.68 42.3678C23.936 42.8371 24 43.2638 23.872 43.6478C23.7867 43.8611 23.36 44.2878 22.592 44.9278C21.824 45.6104 20.9493 46.2718 19.968 46.9118C18.9867 47.5944 18.0907 48.0638 17.28 48.3198C16.4267 48.7038 15.2747 48.9598 13.824 49.0878C12.416 49.2584 11.0507 49.3011 9.728 49.2158C8.40533 49.1304 7.40267 48.9811 6.72 48.7678ZM28.771 43.7758C28.4297 43.4344 28.1737 42.9224 28.003 42.2398C27.875 41.5571 27.8323 40.8958 27.875 40.2558C27.9177 39.5731 28.0243 39.0611 28.195 38.7198C28.195 38.3784 28.2377 38.1224 28.323 37.9518C28.451 37.7384 28.4937 37.5464 28.451 37.3758C28.4083 37.2051 28.451 36.9064 28.579 36.4798C28.707 36.0531 28.835 35.6478 28.963 35.2638C29.2617 34.5811 29.603 33.7064 29.987 32.6398C30.371 31.5304 30.755 30.4211 31.139 29.3118C31.523 28.1598 31.843 27.1784 32.099 26.3678C32.355 25.5144 32.5043 25.0024 32.547 24.8318C32.547 24.3198 32.8883 24.0424 33.571 23.9998C34.083 23.8291 34.7017 24.0424 35.427 24.6398C36.1523 25.2371 36.7283 25.8771 37.155 26.5598C37.4963 26.9011 37.6243 27.3491 37.539 27.9038C37.4537 28.4584 37.1763 29.2478 36.707 30.2718C36.5363 30.6131 36.323 31.1891 36.067 31.9998C35.8537 32.7678 35.7043 33.4078 35.619 33.9198C35.4483 34.2611 35.235 34.7518 34.979 35.3918C34.7657 35.9891 34.5737 36.5651 34.403 37.1198C34.3177 37.3331 34.2323 37.7384 34.147 38.3358C34.0617 38.8904 33.955 39.4664 33.827 40.0638C33.699 40.6611 33.5283 41.1304 33.315 41.4718C32.931 43.2211 32.2483 44.2451 31.267 44.5438C30.3283 44.8424 29.4963 44.5864 28.771 43.7758ZM35.683 18.1118C35.2137 17.7704 34.851 17.3651 34.595 16.8958C34.3817 16.3838 34.2537 15.9358 34.211 15.5518C34.211 15.1678 34.2537 14.9331 34.339 14.8478C34.7657 14.3784 35.1283 13.7598 35.427 12.9918C35.7683 12.2238 36.131 11.5198 36.515 10.8798C36.6003 10.7518 36.707 10.5811 36.835 10.3678C37.0057 10.1118 37.1763 9.96244 37.347 9.91977C37.859 9.57844 38.563 9.59977 39.459 9.98377C40.3977 10.3678 41.0803 10.9011 41.507 11.5838C41.891 12.3944 41.9977 13.2264 41.827 14.0798C41.699 14.9331 41.251 15.8291 40.483 16.7678C39.843 17.6211 39.0323 18.1758 38.051 18.4318C37.0697 18.6451 36.2803 18.5384 35.683 18.1118ZM44.5335 45.2478C43.0828 44.6504 42.0162 44.0318 41.3335 43.3918C40.6935 42.7091 40.4375 42.1118 40.5655 41.5998C40.6508 41.3438 40.8002 41.1091 41.0135 40.8958C41.2268 40.6824 41.6962 40.5971 42.4215 40.6398C43.1895 40.6398 44.3628 40.8318 45.9415 41.2158C46.4108 41.2158 46.8802 41.1944 47.3495 41.1518C47.8188 41.1091 48.2455 41.0451 48.6295 40.9598C49.0562 40.8744 49.3975 40.7678 49.6535 40.6398C49.8668 40.5544 49.9308 40.4478 49.8455 40.3198C49.7602 40.1491 49.6108 39.9784 49.3975 39.8078C49.2268 39.5944 49.0348 39.4664 48.8215 39.4238C48.6082 39.3384 48.4162 39.2958 48.2455 39.2958C48.1602 39.0824 47.9682 38.8691 47.6695 38.6558C47.4135 38.4424 47.0935 38.2078 46.7095 37.9518C45.7708 37.1838 44.9175 36.5011 44.1495 35.9038C43.3815 35.3064 43.0828 34.8584 43.2535 34.5598C43.2535 34.3891 43.2535 34.3038 43.2535 34.3038C43.2535 34.2611 43.2535 34.2398 43.2535 34.2398C42.9548 34.2398 42.6775 33.8344 42.4215 33.0238C42.1655 32.1704 42.0375 31.4024 42.0375 30.7198C42.0375 29.8664 42.2082 29.0131 42.5495 28.1598C42.9335 27.3064 43.4028 26.4958 43.9575 25.7278C44.5548 24.9598 45.1522 24.2771 45.7495 23.6798C46.5602 22.9118 47.4135 22.1651 48.3095 21.4398C49.2482 20.6718 50.2508 19.9891 51.3175 19.3918C52.4268 18.7944 53.6428 18.3251 54.9655 17.9838C55.5628 17.8558 56.2455 17.7918 57.0135 17.7918C57.7815 17.7918 58.3362 17.8984 58.6775 18.1118C59.0188 17.8984 59.4455 17.9624 59.9575 18.3038C60.4695 18.6024 60.9815 19.0291 61.4935 19.5838C62.0055 20.1384 62.3895 20.6931 62.6455 21.2478C62.6455 21.7598 62.6242 22.3998 62.5815 23.1678C62.5815 23.8931 62.5388 24.5331 62.4535 25.0878C62.3682 25.6424 62.1762 25.9198 61.8775 25.9198C61.8775 25.9198 61.8135 25.9411 61.6855 25.9838C61.6002 25.9838 61.5575 26.0904 61.5575 26.3038C61.5575 26.7304 61.2375 27.2211 60.5975 27.7758C59.7868 28.3304 59.0188 28.7784 58.2935 29.1198C57.5682 29.4611 57.0135 29.4824 56.6295 29.1838C56.3735 29.0131 56.1388 28.8424 55.9255 28.6718C55.7122 28.5011 55.5202 28.2878 55.3495 28.0318C55.3495 28.0318 55.2855 27.9464 55.1575 27.7758C55.0722 27.5624 55.0295 27.3704 55.0295 27.1998C55.0295 27.0291 55.0935 26.8798 55.2215 26.7518C55.3495 26.5811 55.4135 26.4958 55.4135 26.4958C56.0108 25.9411 56.4588 25.4291 56.7575 24.9598C57.0988 24.4904 57.3335 24.0851 57.4615 23.7438C57.5895 23.3598 57.6535 23.0611 57.6535 22.8478C57.6535 22.5918 57.5895 22.4424 57.4615 22.3998C57.3762 22.3144 57.1628 22.2718 56.8215 22.2718C56.6082 22.2718 56.1388 22.4424 55.4135 22.7838C54.7308 23.1251 54.0055 23.5518 53.2375 24.0638C52.4695 24.5331 51.8722 24.9598 51.4455 25.3438C51.2748 25.6424 51.1468 25.8344 51.0615 25.9198C51.0188 26.0051 50.9122 26.0478 50.7415 26.0478C50.7415 25.8771 50.6348 25.8984 50.4215 26.1118C50.2082 26.3251 49.9522 26.6238 49.6535 27.0078C49.3548 27.3918 49.0562 27.7971 48.7575 28.2238C48.4588 28.6504 48.2242 28.9918 48.0535 29.2478C48.0108 29.6318 47.9042 29.9944 47.7335 30.3358C47.6055 30.6344 47.5628 30.9544 47.6055 31.2958C47.6482 31.7224 47.8615 32.1278 48.2455 32.5118C48.6295 32.8958 49.1842 33.3864 49.9095 33.9838C51.4028 35.0931 52.5122 35.9678 53.2375 36.6078C54.0055 37.2478 54.5388 37.7598 54.8375 38.1438C55.1362 38.5278 55.3282 38.9118 55.4135 39.2958C56.1388 40.6184 56.2242 41.7704 55.6695 42.7518C55.1148 43.6904 54.2615 44.4158 53.1095 44.9278C52.6828 45.1411 51.9362 45.3331 50.8695 45.5038C49.8028 45.7171 48.6722 45.8024 47.4775 45.7598C46.3255 45.7598 45.3442 45.5891 44.5335 45.2478ZM69.2125 43.9678C68.8712 44.0531 68.4232 44.0958 67.8685 44.0958C67.3138 44.0531 66.8232 43.9891 66.3965 43.9038C66.0125 43.7758 65.8205 43.6478 65.8205 43.5198C65.8205 43.3064 65.7138 43.1998 65.5005 43.1998C65.5005 43.1998 65.2658 43.0291 64.7965 42.6878C64.3272 42.3038 63.9005 42.0264 63.5165 41.8558C63.1325 41.2584 62.8765 40.5758 62.7485 39.8078C62.6632 38.9971 62.9192 37.5891 63.5165 35.5838C63.5592 34.2184 63.9432 32.7891 64.6685 31.2958C65.3938 29.7598 66.3112 28.2664 67.4205 26.8158C68.5298 25.3651 69.6818 24.0851 70.8765 22.9758C72.0712 21.8238 73.1378 20.9704 74.0765 20.4158C74.6738 19.8184 75.4632 19.4984 76.4445 19.4558C77.4685 19.4131 78.3645 19.6051 79.1325 20.0318C79.5592 20.2451 80.0285 20.6718 80.5405 21.3118C81.0525 21.9518 81.5432 22.6344 82.0125 23.3598C82.4818 24.0424 82.8445 24.6611 83.1005 25.2158C83.2285 25.6851 83.3352 26.1118 83.4205 26.4958C83.5485 26.8371 83.6338 27.2638 83.6765 27.7758C83.7192 28.2878 83.6765 29.0558 83.5485 30.0798C83.3352 30.8478 83.1432 31.6371 82.9725 32.4478C82.8445 33.2158 82.7805 34.0051 82.7805 34.8158C82.6952 35.6264 82.7805 36.2024 83.0365 36.5438C83.3352 36.8851 83.7618 36.9064 84.3165 36.6078C84.8285 36.3518 85.3618 36.3304 85.9165 36.5438C86.4712 36.7144 86.8552 37.0558 87.0685 37.5678C87.3245 38.0371 87.2605 38.6558 86.8765 39.4238C86.6205 39.9784 86.2152 40.5118 85.6605 41.0238C85.1058 41.5358 84.4872 41.9624 83.8045 42.3038C83.1218 42.6024 82.4605 42.7518 81.8205 42.7518C81.3512 42.7518 80.8818 42.5811 80.4125 42.2398C79.9432 41.8558 79.5165 41.3438 79.1325 40.7038C78.7485 40.0638 78.4285 39.3598 78.1725 38.5918L77.7885 37.1198L75.4845 39.2318C74.9298 39.8291 74.3752 40.3838 73.8205 40.8958C73.3085 41.3651 72.9885 41.7064 72.8605 41.9198C72.6472 42.3038 72.2205 42.6451 71.5805 42.9438C70.9832 43.2424 70.1938 43.5838 69.2125 43.9678ZM70.9405 37.8238C71.6658 37.3971 72.2845 36.8851 72.7965 36.2878C73.3512 35.6904 73.8845 35.0291 74.3965 34.3038C74.9085 33.5358 75.4632 32.7251 76.0605 31.8718C76.7858 30.8904 77.2978 30.1011 77.5965 29.5038C77.9378 28.9064 78.1938 28.2664 78.3645 27.5838C78.1938 27.1144 77.9592 26.6238 77.6605 26.1118C77.3618 25.5571 77.0632 25.2584 76.7645 25.2158C76.1672 25.2158 75.4418 25.5784 74.5885 26.3038C73.7778 27.0291 72.8818 28.0744 71.9005 29.4398C71.7298 29.6531 71.5165 29.9944 71.2605 30.4638C71.0045 30.9331 70.7485 31.3811 70.4925 31.8078C70.2792 32.1918 70.1298 32.4478 70.0445 32.5758C69.9165 32.7464 69.7245 33.1518 69.4685 33.7918C69.2552 34.3891 69.0632 35.0078 68.8925 35.6478C68.7218 36.2451 68.6365 36.6718 68.6365 36.9278C68.6365 37.1838 68.6578 37.4611 68.7005 37.7598C68.7858 38.0584 68.9992 38.2504 69.3405 38.3358C69.6818 38.4211 70.2152 38.2504 70.9405 37.8238Z" fill="#FF4460"/>
</svg>
