<svg width="20" height="20" viewBox="0 0 20 20" fill="none" xmlns="http://www.w3.org/2000/svg">
<path d="M13.3334 1.6665H6.66675C3.33341 1.6665 1.66675 3.33317 1.66675 6.6665V17.4998C1.66675 17.9582 2.04175 18.3332 2.50008 18.3332H13.3334C16.6667 18.3332 18.3334 16.6665 18.3334 13.3332V6.6665C18.3334 3.33317 16.6667 1.6665 13.3334 1.6665Z" stroke="#A7A2A3" stroke-width="1.25" stroke-linecap="round" stroke-linejoin="round"/>
<path d="M10.7583 6.53346L6.43332 10.8585C6.26666 11.0251 6.10833 11.3501 6.07499 11.5835L5.84166 13.2335C5.75833 13.8335 6.17499 14.2501 6.77499 14.1668L8.42498 13.9335C8.65831 13.9001 8.98333 13.7418 9.15 13.5751L13.475 9.25013C14.2167 8.50846 14.575 7.64179 13.475 6.54179C12.375 5.43346 11.5083 5.78346 10.7583 6.53346Z" stroke="#A7A2A3" stroke-width="1.25" stroke-miterlimit="10" stroke-linecap="round" stroke-linejoin="round"/>
<path d="M10.1416 7.1499C10.5083 8.45824 11.5333 9.49157 12.8499 9.85824" stroke="#A7A2A3" stroke-width="1.25" stroke-miterlimit="10" stroke-linecap="round" stroke-linejoin="round"/>
</svg>
