<svg width="20" height="20" viewBox="0 0 20 20" fill="none" xmlns="http://www.w3.org/2000/svg">
<path d="M14.9999 6.59148C14.9749 6.59148 14.9582 6.59148 14.9332 6.59148H14.8915C13.3165 6.54148 12.1415 5.32481 12.1415 3.82481C12.1415 2.29147 13.3915 1.0498 14.9165 1.0498C16.4415 1.0498 17.6915 2.29981 17.6915 3.82481C17.6832 5.33314 16.5082 6.54981 15.0082 6.59981C15.0082 6.59147 15.0082 6.59148 14.9999 6.59148ZM14.9165 2.29148C14.0749 2.29148 13.3915 2.97481 13.3915 3.81648C13.3915 4.64148 14.0332 5.30815 14.8582 5.34148C14.8665 5.33315 14.9332 5.33315 15.0082 5.34148C15.8165 5.29981 16.4415 4.63314 16.4499 3.81648C16.4499 2.97481 15.7665 2.29148 14.9165 2.29148Z" fill="#A7A2A3"/>
<path d="M15.0087 12.7334C14.6837 12.7334 14.3587 12.7084 14.0337 12.65C13.6921 12.5917 13.4671 12.2667 13.5254 11.925C13.5837 11.5834 13.9087 11.3584 14.2504 11.4167C15.2754 11.5917 16.3587 11.4 17.0837 10.9167C17.4754 10.6584 17.6837 10.3334 17.6837 10.0084C17.6837 9.68337 17.4671 9.3667 17.0837 9.10837C16.3587 8.62504 15.2587 8.43337 14.2254 8.61671C13.8837 8.68337 13.5587 8.45004 13.5004 8.10837C13.4421 7.76671 13.6671 7.44171 14.0087 7.38338C15.3671 7.14171 16.7754 7.40004 17.7754 8.0667C18.5087 8.55837 18.9337 9.25837 18.9337 10.0084C18.9337 10.75 18.5171 11.4584 17.7754 11.9584C17.0171 12.4584 16.0337 12.7334 15.0087 12.7334Z" fill="#A7A2A3"/>
<path d="M4.97539 6.592C4.96706 6.592 4.95872 6.592 4.95872 6.592C3.45872 6.542 2.28372 5.32532 2.27539 3.82532C2.27539 2.29199 3.52539 1.04199 5.05039 1.04199C6.57539 1.04199 7.82539 2.29199 7.82539 3.81699C7.82539 5.32533 6.65039 6.542 5.15039 6.592L4.97539 5.967L5.03373 6.592C5.01706 6.592 4.99206 6.592 4.97539 6.592ZM5.05872 5.342C5.10872 5.342 5.15039 5.34199 5.20039 5.35032C5.94206 5.31699 6.59206 4.65032 6.59206 3.82532C6.59206 2.98366 5.90873 2.30032 5.06706 2.30032C4.22539 2.30032 3.54206 2.98366 3.54206 3.82532C3.54206 4.64199 4.17539 5.30032 4.98372 5.35032C4.99206 5.34199 5.02539 5.342 5.05872 5.342Z" fill="#A7A2A3"/>
<path d="M4.96699 12.7334C3.94199 12.7334 2.95866 12.4584 2.20033 11.9584C1.46699 11.4667 1.04199 10.7584 1.04199 10.0084C1.04199 9.26671 1.46699 8.55837 2.20033 8.0667C3.20033 7.40004 4.60866 7.14171 5.96699 7.38338C6.30866 7.44171 6.53366 7.76671 6.47533 8.10837C6.41699 8.45004 6.09199 8.68337 5.75033 8.61671C4.71699 8.43337 3.62533 8.62504 2.89199 9.10837C2.50033 9.3667 2.29199 9.68337 2.29199 10.0084C2.29199 10.3334 2.50866 10.6584 2.89199 10.9167C3.61699 11.4 4.70032 11.5917 5.72532 11.4167C6.06699 11.3584 6.39199 11.5917 6.45033 11.925C6.50866 12.2667 6.28366 12.5917 5.94199 12.65C5.61699 12.7084 5.29199 12.7334 4.96699 12.7334Z" fill="#A7A2A3"/>
<path d="M9.99985 12.8166C9.97485 12.8166 9.95818 12.8166 9.93318 12.8166H9.89152C8.31652 12.7666 7.14152 11.5499 7.14152 10.0499C7.14152 8.51657 8.39152 7.2749 9.91652 7.2749C11.4415 7.2749 12.6915 8.5249 12.6915 10.0499C12.6832 11.5582 11.5082 12.7749 10.0082 12.8249C10.0082 12.8166 10.0082 12.8166 9.99985 12.8166ZM9.91652 8.51657C9.07485 8.51657 8.39152 9.19991 8.39152 10.0416C8.39152 10.8666 9.03319 11.5332 9.85819 11.5666C9.86652 11.5582 9.93319 11.5582 10.0082 11.5666C10.8165 11.5249 11.4415 10.8582 11.4499 10.0416C11.4499 9.20824 10.7665 8.51657 9.91652 8.51657Z" fill="#A7A2A3"/>
<path d="M9.99982 18.9666C8.99982 18.9666 7.99982 18.7083 7.22482 18.1833C6.49149 17.6916 6.06649 16.9916 6.06649 16.2416C6.06649 15.4999 6.48315 14.7833 7.22482 14.2916C8.78315 13.2583 11.2248 13.2583 12.7748 14.2916C13.5082 14.7833 13.9332 15.4833 13.9332 16.2333C13.9332 16.9749 13.5165 17.6916 12.7748 18.1833C11.9998 18.6999 10.9998 18.9666 9.99982 18.9666ZM7.91649 15.3416C7.52482 15.5999 7.31649 15.9249 7.31649 16.2499C7.31649 16.5749 7.53316 16.8916 7.91649 17.1499C9.04149 17.9083 10.9498 17.9083 12.0748 17.1499C12.4665 16.8916 12.6748 16.5666 12.6748 16.2416C12.6748 15.9166 12.4582 15.5999 12.0748 15.3416C10.9582 14.5833 9.04982 14.5916 7.91649 15.3416Z" fill="#A7A2A3"/>
</svg>
